<?xml version="1.0" encoding="utf-8"?>
<!-- Generator: Adobe Illustrator 21.1.0, SVG Export Plug-In . SVG Version: 6.00 Build 0)  -->
<svg version="1.1" id="Ebene_1" xmlns="http://www.w3.org/2000/svg" xmlns:xlink="http://www.w3.org/1999/xlink" x="0px" y="0px"
     viewBox="193 22 31 31" xml:space="preserve">

        <g id="celogo-eyes-open">
            <path fill="#010101"  d="M219.3,37.4c-0.1,0-0.4,0-0.6,0.3c-0.3,0.2-0.6,0.7-0.9,1.7l-1.5,5.3l1.1,0.5c0,0,0.1,0,0.2,0c0.1,0,0.4,0,0.6-0.3
        c0.3-0.2,0.6-0.7,0.9-1.7l1.5-5.3l-1.1-0.5C219.5,37.4,219.4,37.4,219.3,37.4z"/>
            <path fill="#010101"  d="M223,29c-0.4,0-0.7,0.3-0.7,0.7c0,0.2,0.1,0.4,0.2,0.5l-2.7,6.3c0,0,0,0,0,0l0.4,0.2l2.7-6.2c0,0,0,0,0,0
        c0.4,0,0.7-0.3,0.7-0.7C223.7,29.3,223.4,29,223,29z"/>
            <path fill="#010101"  d="M216.9,39.1c0.3-1.1,0.7-1.7,1.2-2.1c0.4-0.4,0.8-0.5,1.2-0.5c0-0.2,0.1-0.5,0.1-0.8c0-0.5-0.1-1.1-0.4-1.7
                c-0.3-0.6-0.9-1.1-1.9-1.4l-16.3-5.8l0,0c-0.1,0-0.6-0.2-1.3-0.2c-0.5,0-1.1,0.1-1.6,0.4c-0.5,0.3-1,0.9-1.3,1.8l-3,9l0,0
                c0,0.1-0.2,0.6-0.2,1.2c0,0.5,0.1,1.1,0.4,1.7c0.3,0.6,0.9,1.1,1.9,1.4l16.3,5.8l0,0c0.1,0,0.6,0.2,1.3,0.2c0.5,0,1.1-0.1,1.6-0.4
                c0.5-0.3,1-0.9,1.3-1.8l0.1-0.3l-1-0.4L216.9,39.1z M201.1,33.5c-0.3,0.7-0.7,1.3-1.1,1.8c-0.4,0.4-0.8,0.6-1.1,0.6l-0.2,0
                c-0.2-0.1-0.3-0.2-0.5-0.5c-0.1-0.3-0.2-0.6-0.2-1.1c0-0.5,0.1-1.2,0.4-1.8c0.3-0.7,0.7-1.3,1.1-1.8c0.4-0.4,0.8-0.6,1.1-0.6l0.2,0
                c0.2,0.1,0.3,0.2,0.5,0.5c0.1,0.3,0.2,0.6,0.2,1.1C201.5,32.2,201.4,32.9,201.1,33.5z M208.3,35.5c-0.3,0.8-0.8,1.5-1.2,1.9
                c-0.5,0.5-0.9,0.7-1.3,0.7c-0.1,0-0.2,0-0.3,0c-0.2-0.1-0.4-0.2-0.5-0.5c-0.1-0.3-0.2-0.7-0.2-1.2c0-0.6,0.1-1.3,0.4-2
                c0.3-0.8,0.8-1.5,1.2-1.9c0.5-0.5,0.9-0.7,1.3-0.7c0.1,0,0.2,0,0.3,0c0.2,0.1,0.4,0.2,0.5,0.5c0.1,0.3,0.2,0.7,0.2,1.2
                C208.7,34.1,208.6,34.8,208.3,35.5z"/>
            <path fill="#010101"  d="M219.3,37.4c-0.1,0-0.4,0-0.6,0.3c-0.3,0.2-0.6,0.7-0.9,1.7l-1.5,5.3l1.1,0.5c0,0,0.1,0,0.2,0c0.1,0,0.4,0,0.6-0.3
        c0.3-0.2,0.6-0.7,0.9-1.7l1.5-5.3l-1.1-0.5C219.5,37.4,219.4,37.4,219.3,37.4z"/>
            <path fill="#010101"  d="M223,29c-0.4,0-0.7,0.3-0.7,0.7c0,0.2,0.1,0.4,0.2,0.5l-2.7,6.3c0,0,0,0,0,0l0.4,0.2l2.7-6.2c0,0,0,0,0,0
        c0.4,0,0.7-0.3,0.7-0.7C223.7,29.3,223.4,29,223,29z"/>
        </g>
<!--         <g id="celogo-eyes-closed">
            <path fill="#010101"  d="M216.9,39.1c0.3-1.1,0.7-1.7,1.2-2.1c0.4-0.4,0.8-0.5,1.2-0.5c0-0.2,0.1-0.5,0.1-0.8c0-0.5-0.1-1.1-0.4-1.7
                c-0.3-0.6-0.9-1.1-1.9-1.4l-16.3-5.8l0,0c-0.1,0-0.6-0.2-1.3-0.2c-0.5,0-1.1,0.1-1.6,0.4c-0.5,0.3-1,0.9-1.3,1.8l-3,9l0,0
                c0,0.1-0.2,0.6-0.2,1.2c0,0.5,0.1,1.1,0.4,1.7c0.3,0.6,0.9,1.1,1.9,1.4l16.3,5.8l0,0c0.1,0,0.6,0.2,1.3,0.2c0.5,0,1.1-0.1,1.6-0.4
                c0.5-0.3,1-0.9,1.3-1.8l0.1-0.3l-1-0.4L216.9,39.1z">

<animate id="anim-open" attributeName="visibility"
    values="hidden;hidden;hidden;hidden;hidden;hidden;hidden;hidden;hidden;hidden;hidden;hidden;hidden;hidden;hidden;hidden;hidden;hidden;hidden;hidden;hidden;hidden;hidden;hidden;hidden;hidden;hidden;hidden;hidden;hidden;hidden;hidden;hidden;hidden;hidden;hidden;hidden;hidden;hidden;hidden;hidden;hidden;hidden;hidden;visible;hidden;hidden;hidden;hidden;hidden;hidden;hidden;hidden;hidden;hidden;hidden;hidden;hidden;hidden;hidden;hidden;hidden;visible;hidden;visible;"
    begin="0.1s" dur="10.0s" fill="freeze" repeatCount="indefinite" />
        </path>
        </g>
 -->


</svg>
