<?xml version="1.0" standalone="no"?>
<!DOCTYPE svg PUBLIC "-//W3C//DTD SVG 20010904//EN"
 "http://www.w3.org/TR/2001/REC-SVG-20010904/DTD/svg10.dtd">
<svg version="1.0" xmlns="http://www.w3.org/2000/svg"
 width="700.000000pt" height="700.000000pt" viewBox="0 0 700.000000 700.000000"
 preserveAspectRatio="xMidYMid meet">
<metadata>
Created by potrace 1.11, written by Peter Selinger 2001-2013
</metadata>
<g transform="translate(0.000000,700.000000) scale(0.100000,-0.100000)"
fill="#000000" stroke="none">
<path d="M1350 5953 c-52 -8 -146 -36 -196 -59 -107 -49 -213 -159 -283 -292
-25 -48 -718 -2095 -736 -2172 -1 -8 -8 -33 -13 -55 -27 -104 -37 -258 -21
-340 5 -27 12 -63 15 -79 8 -50 60 -173 94 -226 18 -28 59 -75 92 -104 96 -87
154 -113 583 -262 55 -19 109 -39 120 -43 11 -5 137 -50 280 -101 377 -133
453 -160 633 -224 37 -14 139 -50 227 -81 88 -31 189 -67 225 -80 64 -24 320
-115 455 -162 39 -13 171 -61 295 -105 124 -44 326 -116 450 -159 124 -44 234
-84 245 -89 11 -5 74 -27 140 -50 66 -23 167 -59 225 -80 58 -21 141 -46 185
-55 44 -9 89 -19 100 -21 57 -12 219 -4 300 16 185 43 307 140 407 320 37 68
90 212 81 220 -4 4 -51 25 -103 45 -52 21 -99 41 -104 46 -7 6 19 117 99 419
14 52 41 154 60 225 18 72 50 193 70 270 21 77 39 147 40 155 2 8 26 100 54
204 92 340 154 457 311 587 90 74 135 95 220 102 45 3 52 28 53 192 1 108 -2
144 -21 210 -72 249 -195 376 -458 471 -122 44 -284 100 -344 120 -25 8 -54
19 -65 24 -11 5 -112 41 -225 81 -113 39 -214 75 -225 80 -11 4 -99 35 -195
69 -96 34 -184 65 -195 70 -31 13 -393 140 -400 140 -4 0 -21 6 -38 14 -18 8
-77 30 -132 49 -186 65 -650 229 -670 237 -27 11 -128 48 -330 119 -93 32
-195 68 -225 79 -46 17 -355 128 -610 218 -36 12 -76 25 -90 28 -14 2 -47 10
-75 16 -49 12 -256 21 -305 13z m454 -814 c74 -64 106 -154 111 -309 7 -201
-53 -398 -191 -626 -135 -225 -249 -324 -389 -340 l-56 -7 -52 55 c-69 72 -99
175 -96 327 4 184 47 323 176 562 36 68 151 225 190 260 77 70 158 108 230
109 33 0 50 -7 77 -31z m1604 -363 c36 -19 76 -64 90 -101 86 -237 48 -557
-102 -853 -98 -193 -263 -372 -400 -433 -49 -21 -149 -31 -186 -17 -107 40
-162 239 -137 503 12 122 62 298 109 383 10 18 18 37 18 41 0 14 86 157 132
219 83 111 201 214 284 246 70 27 154 32 192 12z"/>
<path d="M6703 5405 c-75 -32 -108 -142 -66 -222 l20 -38 -303 -709 c-167
-390 -303 -710 -302 -711 10 -8 90 -46 92 -43 2 2 111 253 244 558 393 904
363 840 385 840 35 0 94 41 116 81 29 51 32 155 7 194 -39 59 -122 81 -193 50z"/>
<path d="M5910 3520 c-47 -8 -61 -17 -125 -79 -97 -95 -142 -206 -284 -711
-110 -393 -231 -822 -237 -841 -4 -15 47 -43 201 -109 55 -23 113 -26 158 -6
46 20 130 111 171 186 64 118 53 84 377 1227 33 117 58 217 55 222 -8 12 -226
109 -256 114 -14 2 -41 1 -60 -3z"/>
</g>
</svg>
